<svg width="76" height="75" viewBox="0 0 76 75" fill="none" xmlns="http://www.w3.org/2000/svg">
<g filter="url(#filter0_b_1_241)">
<circle cx="37.6284" cy="37.3354" r="37.1611" fill="#FCFFFE" fill-opacity="0.12"/>
</g>
<path fill-rule="evenodd" clip-rule="evenodd" d="M36.788 19.4922C23.2388 20.9758 16.123 36.1893 23.6794 47.5178C29.9405 56.9043 43.2566 58.2145 51.2548 50.2309C60.5845 40.9182 57.0659 24.9673 44.6925 20.4818C42.3462 19.6313 39.1606 19.2324 36.788 19.4922ZM32.5547 26.7674C33.2002 27.1651 35.8439 31.6196 35.8439 32.3093C35.8439 32.6127 35.7599 32.7098 34.6339 33.7071C33.7028 34.532 33.7166 34.5002 33.9678 35.2398C34.9913 38.2532 37.7869 41.0576 40.7908 42.0843C41.509 42.3299 41.5159 42.3279 42.0467 41.7194C43.169 40.4325 43.4213 40.2023 43.7096 40.2023C44.078 40.2023 45.5068 40.9272 47.0527 41.8984C49.2034 43.2496 49.5295 43.574 49.2749 44.1096C48.9779 44.7343 46.7976 46.7127 45.2348 47.7754L44.4768 48.2907L44.0227 48.2417C42.6823 48.0968 40.6464 47.3497 38.9838 46.3924C33.3566 43.1528 28.3452 36.6863 27.8319 32.0023L27.7824 31.5513L28.2266 30.8749C29.1182 29.5173 31.037 27.3302 31.7551 26.8531C32.1495 26.591 32.2509 26.5801 32.5547 26.7674ZM41.2813 26.8263C45.7581 27.7503 49.0048 31.4467 49.3451 36.0074L49.3971 36.7053L48.6182 36.6838L47.8393 36.6622L47.7867 35.9482C47.4893 31.9089 44.1112 28.5202 40.0846 28.2218L39.3729 28.1691L39.3514 27.3877L39.3299 26.6063L40.0257 26.6586C40.4084 26.6873 40.9734 26.7628 41.2813 26.8263ZM40.7964 30.6825C43.3947 31.3104 45.4757 33.7926 45.4787 36.2676L45.4792 36.6998H44.73H43.9807L43.9794 36.4555C43.9677 34.2683 41.7593 32.0529 39.5789 32.0411L39.3354 32.0399V31.2882V30.5366L39.7662 30.5372C40.0032 30.5375 40.4668 30.6029 40.7964 30.6825Z" fill="#FCFFFE"/>
<defs>
<filter id="filter0_b_1_241" x="-7.70816" y="-8.00113" width="90.6732" height="90.6732" filterUnits="userSpaceOnUse" color-interpolation-filters="sRGB">
<feFlood flood-opacity="0" result="BackgroundImageFix"/>
<feGaussianBlur in="BackgroundImageFix" stdDeviation="4.08772"/>
<feComposite in2="SourceAlpha" operator="in" result="effect1_backgroundBlur_1_241"/>
<feBlend mode="normal" in="SourceGraphic" in2="effect1_backgroundBlur_1_241" result="shape"/>
</filter>
</defs>
</svg>
