<svg width="76" height="75" viewBox="0 0 76 75" fill="none" xmlns="http://www.w3.org/2000/svg">
<g filter="url(#filter0_b_1_226)">
<circle cx="37.6284" cy="37.3354" r="37.1611" fill="#FCFFFE" fill-opacity="0.12"/>
</g>
<path fill-rule="evenodd" clip-rule="evenodd" d="M41.3599 20.8102C36.3083 21.3178 32.1941 24.0081 30.5089 27.9057C30.2512 28.5017 29.8837 29.7574 29.9479 29.8219C29.9681 29.8421 30.2293 29.7842 30.5284 29.6932C40.2849 26.7279 50.6113 32.7178 51.3213 41.7542L51.3662 42.3258H52.9403C54.7265 42.3258 54.8452 42.2987 55.1136 41.8291C55.4443 41.2503 55.3783 41.1143 53.9623 39.4576C53.3158 38.7012 52.7869 38.0521 52.7869 38.015C52.7869 37.978 52.924 37.7791 53.0915 37.573C57.8562 31.7115 54.3738 23.3323 46.3123 21.2611C44.8517 20.8859 42.6251 20.6831 41.3599 20.8102ZM34.1 30.965C27.9365 31.6511 23.2101 35.4425 22.1073 40.5852C21.9002 41.5508 21.8986 43.364 22.1039 44.387C22.462 46.1715 23.225 47.8108 24.3507 49.2141L24.7154 49.6687L24.3085 50.1285C22.5255 52.1433 21.9914 52.7964 21.9512 53.0114C21.8637 53.4793 22.0711 53.9176 22.4698 54.1074C22.7387 54.2354 36.6919 54.2698 37.7788 54.1451C40.2238 53.8647 42.8702 52.7342 44.9144 51.097C48.7644 48.0136 50.274 43.5563 48.8828 39.3792C47.4459 35.0644 43.2966 31.9022 37.9626 31.0568C37.1893 30.9343 34.8712 30.8791 34.1 30.965ZM30.6124 40.59C31.7862 41.1661 32.0389 42.7604 31.1048 43.6974C30.1487 44.6566 28.5097 44.3597 27.967 43.1292C27.2267 41.4504 28.9653 39.7816 30.6124 40.59ZM36.5375 40.59C37.7114 41.1661 37.9641 42.7604 37.03 43.6974C36.0738 44.6566 34.4348 44.3597 33.8921 43.1292C33.1519 41.4504 34.8905 39.7816 36.5375 40.59ZM42.4627 40.59C43.6365 41.1661 43.8892 42.7604 42.9551 43.6974C41.9989 44.6566 40.36 44.3597 39.8173 43.1292C39.077 41.4504 40.8156 39.7816 42.4627 40.59Z" fill="url(#paint0_linear_1_226)"/>
<defs>
<filter id="filter0_b_1_226" x="-7.70816" y="-8.00113" width="90.6732" height="90.6732" filterUnits="userSpaceOnUse" color-interpolation-filters="sRGB">
<feFlood flood-opacity="0" result="BackgroundImageFix"/>
<feGaussianBlur in="BackgroundImageFix" stdDeviation="4.08772"/>
<feComposite in2="SourceAlpha" operator="in" result="effect1_backgroundBlur_1_226"/>
<feBlend mode="normal" in="SourceGraphic" in2="effect1_backgroundBlur_1_226" result="shape"/>
</filter>
<linearGradient id="paint0_linear_1_226" x1="38.6049" y1="20.7723" x2="38.6049" y2="54.2229" gradientUnits="userSpaceOnUse">
<stop stop-color="#0CD8AE"/>
<stop offset="1" stop-color="#0CD845"/>
</linearGradient>
</defs>
</svg>
