<svg width="76" height="75" viewBox="0 0 76 75" fill="none" xmlns="http://www.w3.org/2000/svg">
<g filter="url(#filter0_b_1_233)">
<circle cx="37.6284" cy="37.3354" r="37.1611" fill="#FCFFFE" fill-opacity="0.12"/>
</g>
<path fill-rule="evenodd" clip-rule="evenodd" d="M37.5307 18.5737C35.6771 18.9485 34.1781 20.291 33.702 22.0029C33.4545 22.8924 33.4591 44.74 33.7068 45.1136C34.0157 45.5796 34.7798 45.8012 35.261 45.5645C35.3566 45.5174 36.5233 44.7258 37.8537 43.8053L40.2728 42.1315L47.7245 42.0945C55.1636 42.0575 55.1771 42.0572 55.6998 41.8927C57.247 41.4061 58.4138 40.3433 58.9883 38.8972L59.2041 38.3539V30.317V22.2802L59.0168 21.7617C58.4884 20.2987 57.3127 19.2045 55.6998 18.6748L55.1762 18.5029L46.5966 18.4891C39.7195 18.478 37.9206 18.4949 37.5307 18.5737ZM53.4442 24.5782C54.0383 24.8939 54.2124 25.5838 53.8389 26.1426C53.5097 26.6352 53.8573 26.6134 46.3346 26.6134H39.5313L39.2657 26.4468C38.5626 26.0055 38.5289 25.1321 39.1968 24.667C39.5832 24.398 39.2598 24.409 46.5161 24.4191C53.0311 24.4282 53.1678 24.4313 53.4442 24.5782ZM53.497 29.3613C54.237 29.7817 54.2059 30.8273 53.4414 31.2403C53.0071 31.4749 39.7876 31.4774 39.3548 31.2429C38.5443 30.804 38.499 29.8538 39.2657 29.3726L39.5313 29.206H46.3775C53.1882 29.206 53.2252 29.2068 53.497 29.3613ZM45.7089 34.0763C46.5962 34.4862 46.5728 35.6611 45.67 36.0283C45.1109 36.2557 39.6379 36.2133 39.2967 35.979C38.528 35.451 38.5532 34.4628 39.345 34.0817C39.7645 33.8798 45.2734 33.8752 45.7089 34.0763ZM24.4832 36.4332C22.8179 36.7698 21.2798 37.8895 20.5399 39.3039C18.9297 42.3821 20.9442 46.0577 24.604 46.719L25.1276 46.8137L24.7249 46.8664C21.561 47.2802 18.9906 49.391 18.2237 52.2053C17.9516 53.2035 17.9481 55.5703 18.2181 55.9183C18.6058 56.4181 18.2227 56.395 25.7611 56.3731C33.3718 56.351 32.7298 56.3969 33.1786 55.8429C33.4055 55.5628 33.415 53.4447 33.1936 52.4697C32.5521 49.6435 30.1904 47.5171 27.0611 46.9482L26.1749 46.7872L26.5844 46.742C29.6734 46.4015 31.9251 43.3785 31.2599 40.4649C30.6286 37.7003 27.4805 35.8273 24.4832 36.4332Z" fill="#FCFFFE"/>
<defs>
<filter id="filter0_b_1_233" x="-7.70816" y="-8.00113" width="90.6732" height="90.6732" filterUnits="userSpaceOnUse" color-interpolation-filters="sRGB">
<feFlood flood-opacity="0" result="BackgroundImageFix"/>
<feGaussianBlur in="BackgroundImageFix" stdDeviation="4.08772"/>
<feComposite in2="SourceAlpha" operator="in" result="effect1_backgroundBlur_1_233"/>
<feBlend mode="normal" in="SourceGraphic" in2="effect1_backgroundBlur_1_233" result="shape"/>
</filter>
</defs>
</svg>
