<svg width="76" height="75" viewBox="0 0 76 75" fill="none" xmlns="http://www.w3.org/2000/svg">
<g filter="url(#filter0_b_1_250)">
<circle cx="37.6284" cy="37.3354" r="37.1611" fill="#FCFFFE" fill-opacity="0.12"/>
</g>
<path fill-rule="evenodd" clip-rule="evenodd" d="M35.9526 19.8597C35.5972 19.9846 35.3918 20.1668 35.2634 20.4711C35.1177 20.8165 35.1188 24.544 35.2647 24.8943C35.552 25.584 36.4816 25.7727 37.031 25.2528C37.3621 24.9395 37.3919 24.6969 37.3668 22.5181C37.3447 20.6043 37.3357 20.492 37.1879 20.2934C36.8795 19.8787 36.3887 19.7063 35.9526 19.8597ZM29.1973 22.3383C28.7549 22.6172 28.5639 23.1348 28.724 23.6214C28.85 24.0043 30.8975 26.0146 31.2632 26.1145C32.0712 26.3351 32.8307 25.5409 32.5869 24.7304C32.5276 24.5329 32.2055 24.1594 31.3987 23.3521L30.2919 22.2448L29.8627 22.2171C29.5274 22.1955 29.3819 22.222 29.1973 22.3383ZM42.2225 22.3331C41.6841 22.6818 39.9824 24.5252 39.9278 24.8188C39.7781 25.6245 40.5092 26.325 41.28 26.1145C41.6686 26.0084 43.7056 23.9917 43.8237 23.5962C44.0309 22.9026 43.5936 22.2636 42.8801 22.2176C42.5408 22.1957 42.3951 22.2213 42.2225 22.3331ZM26.9941 28.7212C26.1509 28.8192 25.3823 29.168 24.7157 29.7551C23.986 30.3978 24.0255 30.3872 22.189 30.4291C20.4051 30.4698 20.2512 30.5064 19.9051 30.9722L19.7495 31.1816V38.4011V45.6205L19.9051 45.83C20.273 46.325 20.3215 46.3336 22.8948 46.3583L25.227 46.3806L29.3838 50.305C33.7491 54.4264 33.949 54.599 34.628 54.8345C36.4104 55.4526 38.552 54.1747 38.828 52.3285C38.8684 52.0582 38.9067 52.0013 39.0708 51.9678C40.5122 51.6739 41.594 50.6395 41.7831 49.3744C41.8254 49.0915 41.8624 49.0353 42.0277 49.0015C43.4692 48.7076 44.551 47.6732 44.7401 46.4081C44.7824 46.1252 44.8193 46.069 44.9847 46.0352C46.1856 45.7903 46.9698 45.1977 47.4563 44.1675C47.6779 43.6981 47.6929 43.6145 47.6929 42.8505C47.6929 41.8696 47.4767 41.3052 46.844 40.634L46.4684 40.2356L44.8259 40.1974C42.6446 40.1467 41.5309 39.8903 39.873 39.0571L39.2236 38.7308L38.7641 39.0595C36.4126 40.7413 33.3885 40.7863 31.014 39.1748C30.263 38.6651 28.8768 37.2281 28.6023 36.6746C28.0208 35.5023 28.1227 34.1739 28.8708 33.175C29.0386 32.9511 30.0956 32.0246 31.5456 30.8306C32.8641 29.7449 33.9525 28.8315 33.964 28.8009C34.0191 28.6554 28.1392 28.5881 26.9941 28.7212ZM39.0724 28.7207C37.5525 28.8761 37.0648 29.1691 33.6178 31.9973C30.5459 34.5177 30.507 34.5553 30.4511 35.0528C30.4003 35.5047 30.5184 35.688 31.4407 36.5896C32.5739 37.6975 33.5398 38.1389 34.8301 38.1389C35.9568 38.1389 36.7062 37.8252 38.1356 36.7547L39.1495 35.9955L39.725 36.3919C41.4794 37.6003 42.8278 37.9744 45.682 38.0446L47.5151 38.0897L48.1488 38.7645C48.9058 39.5706 49.14 39.9002 49.4797 40.6378C50.6546 43.1887 49.6045 46.2502 47.0728 47.6551C46.6706 47.8784 46.5662 47.9813 46.3681 48.3502C46.2402 48.5883 46.0719 48.879 45.9942 48.9961L45.8529 49.2092L46.1076 49.1561C47.1953 48.9295 48.1873 48.4585 49.2899 47.6454C50.8602 46.4874 51.3029 46.373 54.2143 46.373C55.5721 46.373 56.5108 46.3419 56.716 46.29C57.1031 46.1922 57.4589 45.8295 57.5241 45.4661C57.5481 45.3327 57.558 42.0641 57.5462 38.2026C57.5249 31.1975 57.5245 31.1811 57.3693 30.9722C56.9874 30.4584 57.0759 30.4702 53.3112 30.4291C49.4508 30.387 49.7515 30.4333 48.6446 29.7112C47.1636 28.7452 46.9331 28.7036 42.9248 28.6814C41.1155 28.6714 39.3819 28.6891 39.0724 28.7207Z" fill="#FCFFFE"/>
<defs>
<filter id="filter0_b_1_250" x="-7.70816" y="-8.00113" width="90.6732" height="90.6732" filterUnits="userSpaceOnUse" color-interpolation-filters="sRGB">
<feFlood flood-opacity="0" result="BackgroundImageFix"/>
<feGaussianBlur in="BackgroundImageFix" stdDeviation="4.08772"/>
<feComposite in2="SourceAlpha" operator="in" result="effect1_backgroundBlur_1_250"/>
<feBlend mode="normal" in="SourceGraphic" in2="effect1_backgroundBlur_1_250" result="shape"/>
</filter>
</defs>
</svg>
